<?xml version="1.0" standalone="no"?>
<!DOCTYPE svg PUBLIC "-//W3C//DTD SVG 20010904//EN"
 "http://www.w3.org/TR/2001/REC-SVG-20010904/DTD/svg10.dtd">
<svg version="1.0" xmlns="http://www.w3.org/2000/svg"
 width="200.000000pt" height="200.000000pt" viewBox="0 0 200.000000 200.000000"
 preserveAspectRatio="xMidYMid meet">
<metadata>
Created by potrace 1.11, written by Peter Selinger 2001-2013
</metadata>
<g transform="translate(0.000000,200.000000) scale(0.100000,-0.100000)"
fill="#000000" stroke="none">
<path d="M712 1830 c-203 -53 -372 -193 -468 -385 -59 -119 -77 -209 -71 -350
14 -338 246 -610 579 -679 162 -34 305 -14 466 65 84 41 117 64 181 127 156
155 231 347 218 562 -12 188 -77 330 -218 472 -72 72 -101 94 -181 132 -52 26
-126 53 -164 61 -97 21 -252 18 -342 -5z m285 -499 c80 -41 123 -112 123 -206
0 -132 -93 -225 -225 -225 -133 0 -228 94 -228 225 -1 172 179 284 330 206z"/>
<path d="M849 1169 c-27 -27 -21 -66 12 -92 32 -23 62 -16 85 18 41 62 -44
127 -97 74z"/>
<path d="M1748 1213 l-3 -578 -27 -57 c-34 -73 -68 -108 -106 -108 -24 0 -167
-49 -304 -105 -10 -4 -18 -16 -18 -26 0 -30 27 -89 44 -95 22 -9 314 105 321
125 3 9 20 26 39 39 42 29 80 82 109 153 22 53 22 62 25 642 l3 587 -40 0 -40
0 -3 -577z"/>
<path d="M239 311 c-40 -41 -40 -91 0 -132 22 -21 39 -29 66 -29 51 0 95 44
95 95 0 51 -44 95 -95 95 -27 0 -44 -8 -66 -29z"/>
<path d="M547 329 c-9 -5 -24 -24 -33 -41 -34 -65 11 -138 86 -138 85 0 125
109 59 164 -32 27 -80 34 -112 15z"/>
</g>
</svg>
